if (_typeface_js && _typeface_js.loadFace) _typeface_js.loadFace({"glyphs":{"S":{"x_min":0,"x_max":539,"ha":554,"o":"m 396 733 q 498 661 471 733 q 447 611 481 611 l 325 621 q 112 468 112 561 q 447 397 112 434 q 539 244 539 332 q 295 0 471 0 l 183 0 q 41 81 41 0 q 101 142 41 108 l 183 102 l 254 102 q 427 214 357 102 l 427 281 q 112 326 427 326 q 0 472 0 378 q 213 692 0 556 l 396 733 "},"/":{"x_min":-26.6875,"x_max":428.515625,"ha":386,"o":"m 413 606 q 248 300 480 543 l 33 -1 l 19 -1 l -24 41 q 307 539 -54 69 q 406 599 370 634 l 413 606 "},"K":{"x_min":19,"x_max":680.796875,"ha":631,"o":"m 365 753 q 406 691 382 753 q 162 214 406 651 l 162 205 q 284 163 162 171 q 630 204 630 163 q 680 152 657 204 q 558 66 680 81 q 284 51 436 51 l 141 71 q 92 -71 128 -71 l 72 -71 q 24 30 40 -71 l 24 488 l 19 590 q 90 651 19 651 q 151 579 110 651 l 131 407 l 151 407 q 304 742 217 474 l 314 753 l 365 753 "},"7":{"x_min":3.984375,"x_max":421,"ha":435,"o":"m 350 660 q 421 568 421 630 l 421 558 q 339 -72 421 -72 l 309 -72 q 258 -11 291 -72 q 299 443 299 232 l 299 533 l 85 533 q 3 609 3 544 l 44 650 l 166 640 l 227 640 q 350 660 350 640 "},"d":{"x_min":16,"x_max":504,"ha":535,"o":"m 382 819 q 464 574 464 819 q 504 177 504 417 q 453 -56 504 -56 q 397 24 397 -35 l 397 330 l 392 381 l 382 381 q 118 218 172 381 l 118 136 q 189 55 118 55 q 352 177 255 55 l 382 187 l 382 177 q 178 -26 315 -26 q 16 157 51 -26 q 301 482 16 378 l 382 462 l 382 472 l 352 757 l 352 788 l 382 819 "},",":{"x_min":66.78125,"x_max":260,"ha":378,"o":"m 158 208 l 199 208 q 260 85 260 171 l 260 75 q 138 -230 260 -135 l 97 -230 q 66 -189 72 -230 q 138 55 138 -71 l 117 157 q 158 208 137 203 "},"Y":{"x_min":-11,"x_max":620,"ha":476,"o":"m 558 854 l 589 854 l 620 823 l 620 782 l 501 648 q 284 222 284 464 l 355 -82 q 304 -123 355 -123 l 304 -133 q 219 80 219 -133 q 0 711 120 572 l -11 721 q 50 782 -11 766 q 223 467 142 750 l 233 467 q 558 854 521 839 "},"E":{"x_min":22,"x_max":581.59375,"ha":603,"o":"m 378 636 q 429 605 429 623 l 429 595 q 134 473 429 558 l 134 382 l 144 371 l 144 361 l 306 378 q 429 353 429 378 q 144 250 429 324 l 144 240 q 205 57 144 57 l 215 57 q 510 149 319 57 l 551 149 l 581 118 l 581 108 q 398 6 581 35 q 134 -55 310 -31 q 22 524 22 -55 q 378 636 22 600 "},"y":{"x_min":16.515625,"x_max":403.171875,"ha":424,"o":"m 332 537 l 352 537 l 393 496 l 393 48 l 403 38 l 393 8 q 230 -419 393 -321 l 138 -439 q 26 -266 26 -371 l 128 -338 l 138 -338 q 270 -175 234 -338 l 281 -73 l 281 -42 q 148 150 281 -12 q 16 415 74 257 q 77 466 36 466 q 199 262 115 466 l 260 161 l 286 161 l 286 222 l 286 466 q 332 537 304 529 "},"\"":{"x_min":49,"x_max":456,"ha":456,"o":"m 150 725 q 201 673 177 725 q 151 541 151 591 l 151 430 l 140 430 q 49 572 49 460 q 150 725 79 725 m 404 704 q 456 632 456 689 q 354 551 376 593 l 354 470 l 374 440 l 374 419 q 343 399 374 399 q 252 511 252 432 l 252 541 q 404 704 298 704 "},"g":{"x_min":-1,"x_max":452,"ha":478,"o":"m 360 510 q 452 52 452 510 l 452 21 q 238 -385 452 -299 l 207 -385 q 65 -232 105 -385 l 105 -181 q 197 -283 129 -231 l 217 -283 q 350 -69 304 -283 l 340 -18 l 340 103 l 329 103 q 113 2 243 2 q -1 184 -1 2 q 238 469 -1 312 l 360 510 m 116 144 l 116 134 l 146 104 l 156 104 q 319 297 245 104 q 289 358 309 358 q 116 144 116 276 "},"e":{"x_min":11,"x_max":438,"ha":459,"o":"m 245 590 q 418 417 418 554 l 428 355 q 326 223 428 223 l 143 203 l 143 193 q 316 51 143 84 l 336 51 l 438 71 l 438 51 q 295 -41 368 -41 q 31 182 141 -41 l 11 284 q 224 590 11 440 l 245 590 m 123 305 l 173 305 q 347 345 347 305 l 347 447 q 296 518 347 504 q 123 305 123 431 "},"J":{"x_min":0,"x_max":483,"ha":503,"o":"m 387 875 q 483 427 483 875 l 483 346 q 311 0 442 0 q 0 264 237 0 l 0 315 l 40 346 q 122 234 82 346 q 315 102 260 102 q 387 325 387 168 l 387 386 q 346 834 387 834 q 387 875 353 864 "},"|":{"x_min":0,"x_max":0,"ha":688},"^":{"x_min":11,"x_max":1120,"ha":1136,"o":"m 845 767 q 1120 573 1120 767 q 723 166 1120 398 q 652 75 652 95 l 662 3 q 519 -98 596 -98 l 478 -36 l 499 75 q 142 309 470 161 q 11 512 11 465 q 265 726 90 726 q 539 583 397 726 q 763 747 704 747 l 845 767 m 539 400 l 407 532 q 265 594 336 594 l 214 594 q 153 532 173 573 q 478 258 153 414 l 560 186 q 1008 583 1008 464 l 1008 604 q 906 655 984 655 l 845 655 q 611 431 707 655 l 539 400 "},"q":{"x_min":14,"x_max":454,"ha":497,"o":"m 318 390 q 454 318 410 390 l 454 227 q 409 -383 454 -383 l 359 -383 l 308 -332 l 349 74 l 329 74 q 126 -17 226 -17 q 14 145 14 21 q 318 390 14 358 m 126 125 l 126 105 l 146 105 q 329 237 247 105 l 329 278 l 288 278 q 126 125 146 278 "},"b":{"x_min":3,"x_max":512,"ha":528,"o":"m 80 587 q 135 302 135 587 l 165 302 l 236 393 q 338 464 286 454 l 379 485 q 512 332 496 485 l 512 312 q 257 -13 473 -13 q 64 77 64 4 l 3 525 q 80 587 3 587 m 196 118 l 196 47 l 216 47 q 400 302 400 138 q 379 373 393 373 q 196 118 253 373 "},"D":{"x_min":-0.078125,"x_max":590,"ha":603,"o":"m 305 625 q 590 393 590 600 q 264 20 590 171 q 172 0 193 20 l 142 0 q 30 447 100 0 q 0 549 14 447 q 305 625 21 625 m 122 488 q 213 122 180 148 l 233 122 q 488 447 488 223 l 488 457 q 315 543 428 543 q 122 488 122 543 "},"z":{"x_min":0.21875,"x_max":498.21875,"ha":493,"o":"m 132 651 q 366 539 366 651 q 183 162 366 436 l 183 132 l 193 132 q 437 193 301 142 q 498 152 498 169 l 498 111 q 81 0 498 68 q 0 70 0 12 q 234 498 234 404 l 234 508 l 213 529 l 122 529 q 30 600 30 529 l 30 610 q 132 651 41 651 "},"w":{"x_min":11,"x_max":610,"ha":649,"o":"m 560 722 q 610 620 610 722 l 610 559 q 507 10 610 10 l 473 10 q 326 284 431 10 l 315 294 q 295 325 315 325 l 285 325 q 142 0 209 19 l 91 0 q 11 488 11 34 q 62 539 11 539 l 71 539 q 122 457 122 513 l 122 406 q 152 244 122 244 l 244 528 l 285 539 q 468 224 348 539 l 478 224 q 519 498 519 368 l 519 651 l 529 702 l 549 702 l 549 681 l 560 681 l 560 722 "},"$":{"x_min":43,"x_max":592,"ha":608,"o":"m 348 866 q 399 764 399 853 l 469 774 q 531 692 531 753 l 389 652 q 369 520 369 606 l 369 439 l 439 439 l 449 449 q 592 367 592 418 l 592 357 q 348 11 592 148 q 297 -233 348 -233 l 277 -233 q 231 -192 235 -213 l 231 11 l 226 11 q 43 113 43 11 q 114 194 50 194 l 114 184 q 175 103 114 103 l 236 103 l 246 113 l 257 143 q 246 326 246 195 q 63 469 63 347 l 63 479 q 267 682 63 500 l 267 784 q 348 866 267 866 m 165 449 l 195 418 l 257 418 l 257 438 l 257 448 l 257 540 l 236 540 l 165 449 m 358 347 l 358 184 l 369 143 q 480 326 480 208 l 480 347 l 439 357 l 358 347 "},"\\":{"x_min":-35.265625,"x_max":475.390625,"ha":386,"o":"m 11 675 q 270 299 42 702 l 475 -8 l 470 -21 l 415 -48 q -35 653 379 -65 l 11 675 "},"~":{"x_min":0,"x_max":0,"ha":688},"-":{"x_min":0.40625,"x_max":448,"ha":454,"o":"m 81 347 l 193 347 l 305 336 l 346 347 q 448 306 448 329 l 448 286 q 153 225 448 225 l 112 225 l 71 214 q 0 286 38 214 q 81 347 21 347 "},"Q":{"x_min":0,"x_max":681.9375,"ha":674,"o":"m 244 733 l 305 671 l 366 682 q 569 437 533 682 l 518 224 l 681 102 q 630 51 681 75 q 478 143 553 73 q 295 11 346 11 l 224 0 q 0 356 0 69 q 214 733 0 580 l 244 733 m 183 499 l 152 530 q 96 316 96 530 q 234 82 96 82 l 244 82 q 387 183 387 130 l 387 193 l 234 295 l 234 315 l 274 346 l 448 285 l 448 295 l 478 407 l 478 478 q 396 590 478 590 l 336 590 q 214 499 214 560 l 183 499 "},"M":{"x_min":0,"x_max":834.015625,"ha":861,"o":"m 713 896 q 813 325 813 896 l 813 294 l 834 61 l 793 10 q 712 81 747 10 l 712 102 l 712 102 l 712 559 l 691 570 l 681 570 q 427 112 554 112 q 305 305 305 188 l 284 305 q 91 0 215 0 l 61 0 q 0 71 43 0 q 101 122 0 122 q 213 498 213 238 l 203 559 q 244 620 227 620 l 254 620 q 427 254 355 620 l 447 254 q 531 391 481 275 q 654 752 581 508 q 713 896 654 896 "},"C":{"x_min":24,"x_max":634,"ha":659,"o":"m 380 756 q 421 715 421 745 q 278 613 412 678 q 126 278 126 440 l 126 227 q 298 34 126 34 q 563 166 484 34 l 613 166 l 634 145 l 634 125 q 319 -58 577 -29 q 44 135 116 -58 l 24 277 q 298 735 24 514 l 380 756 "},"[":{"x_min":48.65625,"x_max":505.953125,"ha":513,"o":"m 445 892 q 505 831 475 892 q 455 770 505 812 l 404 781 l 268 781 q 175 506 175 781 l 175 139 l 175 -2 q 221 -84 175 -84 q 476 -155 476 -107 l 476 -165 q 414 -237 476 -237 l 200 -206 l 139 -206 q 48 -134 81 -206 q 69 -2 69 -88 l 69 312 q 170 881 69 834 l 241 871 l 445 892 "},"L":{"x_min":0,"x_max":488,"ha":508,"o":"m 50 844 q 132 589 132 844 q 213 122 195 122 l 274 101 l 457 122 l 488 81 l 488 50 q 253 0 488 0 q 81 223 81 0 q 0 793 40 615 q 50 834 0 834 l 50 844 "},";":{"x_min":78.96875,"x_max":292.109375,"ha":377,"o":"m 221 561 l 251 561 q 292 489 271 561 l 251 429 q 170 500 206 429 q 221 561 184 542 m 182 246 q 246 83 246 246 l 246 52 q 109 -201 246 -166 l 78 -171 l 78 -140 q 140 42 140 -59 l 140 62 l 119 184 q 182 246 134 246 "},"!":{"x_min":23,"x_max":201,"ha":238,"o":"m 134 780 q 201 637 201 756 l 201 454 l 201 241 q 160 180 180 180 q 69 302 69 180 l 69 474 l 69 749 q 134 780 103 780 m 64 17 l 84 17 q 155 -23 138 17 l 155 -74 l 104 -115 q 23 -54 66 -115 q 64 17 23 0 "}," ":{"x_min":0,"x_max":0,"ha":433},"{":{"x_min":215,"x_max":622,"ha":688,"o":"m 520 961 l 591 961 q 541 635 541 782 l 611 553 l 622 523 q 500 462 622 462 l 408 421 l 408 400 q 541 329 408 384 l 551 278 q 418 14 418 150 l 408 -46 l 418 -158 l 387 -179 l 357 -179 q 307 -128 307 -179 l 296 -128 l 307 -117 l 307 -87 l 296 -46 l 367 217 l 377 268 q 215 390 231 335 q 439 543 215 421 l 429 645 l 429 686 q 520 961 429 961 "},"X":{"x_min":10.890625,"x_max":641.515625,"ha":665,"o":"m 458 993 q 509 931 509 976 q 316 250 414 811 l 316 209 q 468 108 316 156 l 498 108 q 610 291 577 156 l 621 291 q 641 260 641 291 q 448 6 641 53 l 326 67 l 295 67 q 214 -248 261 -248 q 143 -197 169 -248 q 194 199 194 41 q 10 525 147 219 q 51 586 31 586 l 92 586 q 194 362 132 574 l 224 342 l 234 342 q 458 993 329 993 "},"P":{"x_min":-0.25,"x_max":610,"ha":616,"o":"m 375 743 q 610 569 610 743 q 396 274 610 427 l 248 234 l 248 20 l 223 0 l 202 0 q 132 590 132 0 l 121 590 l 40 539 l 9 570 l 0 570 q 375 743 23 695 m 238 620 l 238 600 l 238 325 q 518 559 518 370 l 518 569 q 457 651 518 625 l 317 651 q 238 620 243 651 "},"%":{"x_min":82,"x_max":715,"ha":744,"o":"m 661 863 l 672 863 l 713 823 l 713 813 q 590 609 713 786 q 285 -194 418 248 l 244 -204 q 183 -153 225 -204 q 620 853 501 757 l 661 863 m 265 793 l 285 793 q 366 670 309 793 q 418 558 389 670 q 224 324 343 324 q 82 517 82 362 l 82 538 q 265 793 122 793 m 187 497 q 224 426 187 426 q 326 538 326 494 q 244 630 326 586 l 222 630 q 187 497 187 630 m 560 263 l 571 263 q 715 80 715 263 q 540 -113 678 -113 q 418 49 418 -73 q 560 263 418 195 m 520 19 l 530 9 l 570 9 q 631 130 631 45 l 620 141 l 610 141 q 520 19 520 141 "},"#":{"x_min":16,"x_max":921.484375,"ha":907,"o":"m 626 824 l 677 783 q 657 579 657 711 l 667 569 l 870 569 l 921 559 l 921 539 q 657 467 921 513 l 657 315 l 728 295 l 850 295 l 870 254 q 717 193 857 193 l 667 193 l 667 111 l 677 71 q 626 0 656 7 l 595 0 q 545 183 545 0 l 504 183 l 403 172 l 403 0 q 352 -71 403 -56 q 291 132 291 -71 l 270 147 l 56 147 l 16 193 l 16 214 q 168 269 16 269 l 281 269 l 281 345 l 270 417 l 240 417 l 138 406 l 107 447 l 107 467 q 255 529 138 529 l 255 539 l 255 681 q 324 743 279 743 q 393 539 393 743 l 443 539 l 484 529 l 535 549 l 535 630 q 626 824 535 824 m 396 396 q 413 285 396 285 l 524 274 l 535 285 l 535 447 q 396 396 396 447 "},"_":{"x_min":0,"x_max":657,"ha":694,"o":"m 553 117 q 657 50 657 117 l 657 40 q 553 5 640 5 l 449 5 l 121 5 q 0 72 0 17 l 0 81 q 103 117 17 117 l 225 117 l 553 117 "},"+":{"x_min":79,"x_max":673.609375,"ha":687,"o":"m 401 597 l 421 597 q 460 536 440 597 l 460 394 l 460 367 q 673 352 460 352 l 673 284 q 465 231 673 259 l 465 211 l 465 201 l 465 180 q 424 -13 465 -13 l 404 -13 q 343 150 343 17 l 343 191 l 312 221 q 119 191 208 191 l 79 241 l 79 261 q 170 312 79 292 l 271 302 q 343 363 343 302 l 343 536 q 401 597 343 597 "},")":{"x_min":61,"x_max":397,"ha":425,"o":"m 163 923 l 173 923 q 397 414 397 711 q 142 -166 397 77 l 122 -166 q 61 -104 61 -166 q 264 363 264 93 q 163 780 264 634 q 92 872 92 810 q 163 923 106 923 "},"'":{"x_min":10,"x_max":193,"ha":234,"o":"m 121 765 q 193 622 193 765 l 193 602 q 30 307 148 307 l 10 337 l 10 347 l 76 591 l 76 724 q 121 765 80 745 "},"}":{"x_min":145,"x_max":506,"ha":583,"o":"m 337 1022 q 399 960 399 1022 q 307 513 399 777 q 471 421 471 488 l 481 411 l 379 299 l 379 289 q 506 -26 506 131 l 506 -56 q 463 -209 506 -209 l 399 -209 l 389 -199 l 379 -199 l 400 -15 q 216 248 400 147 l 205 279 q 277 370 210 311 l 277 380 l 165 431 l 145 462 l 145 492 q 287 808 243 593 l 277 808 l 287 818 l 287 960 l 277 1011 l 287 1022 l 337 1022 "},"a":{"x_min":22,"x_max":449.875,"ha":468,"o":"m 286 535 q 409 393 409 475 l 419 362 l 399 261 q 449 -13 399 139 q 419 -55 434 -55 l 388 -55 q 317 77 354 -37 q 123 -24 191 -24 q 22 118 46 -24 q 246 525 22 371 l 286 535 m 124 118 l 124 88 l 185 88 q 297 230 297 166 l 297 424 l 276 424 q 124 118 124 315 "},"T":{"x_min":-0.296875,"x_max":783,"ha":671,"o":"m 416 844 l 497 794 l 508 794 l 762 794 l 783 773 l 783 743 q 762 692 783 692 q 508 651 508 692 l 508 101 q 467 0 508 53 l 423 0 q 391 40 396 0 l 391 631 l 365 631 l 91 631 l 70 631 q 0 671 26 631 q 243 733 0 733 q 376 804 376 733 l 416 844 "},"=":{"x_min":0,"x_max":448,"ha":471,"o":"m 325 381 q 387 314 387 381 l 387 304 q 325 269 376 269 l 264 269 l 71 269 q 0 336 0 281 l 0 345 q 61 381 10 381 l 132 381 l 325 381 m 81 132 l 193 132 l 305 121 l 346 132 q 448 91 448 114 l 448 71 q 152 10 448 10 l 112 10 l 71 0 q 0 71 38 0 q 81 132 21 132 "},"N":{"x_min":27,"x_max":678.390625,"ha":698,"o":"m 433 739 l 454 739 q 678 240 612 739 q 525 6 655 6 q 220 210 409 6 l 210 210 l 210 199 l 281 -106 l 250 -147 l 209 -147 q 57 341 164 -147 l 27 453 q 98 545 27 545 q 250 331 130 545 q 515 108 421 108 q 597 210 579 108 l 597 281 q 484 637 597 511 l 433 627 l 403 627 l 403 677 q 433 739 409 739 "},"2":{"x_min":0,"x_max":600,"ha":609,"o":"m 253 682 q 417 559 417 658 q 264 233 417 473 l 264 213 q 559 305 511 305 q 600 244 600 294 l 600 213 q 284 81 600 193 q 101 0 161 0 l 30 0 q 0 40 5 0 q 295 508 295 355 l 295 570 l 233 570 q 81 468 180 570 q 20 498 28 468 l 20 539 q 253 682 129 682 "},"j":{"x_min":-136,"x_max":230,"ha":271,"o":"m 67 601 l 108 601 l 139 571 l 139 530 l 88 479 q 27 550 27 495 q 67 601 46 596 m 128 398 l 154 398 q 230 -100 230 398 q 18 -345 204 -345 q -136 -232 -84 -345 l -136 -212 l -105 -181 l -23 -243 l 47 -243 q 139 -110 139 -212 l 139 -100 q 77 326 139 79 q 128 398 98 390 "},"Z":{"x_min":-0.34375,"x_max":610,"ha":608,"o":"m 365 703 q 447 641 411 703 q 182 153 447 579 l 193 153 l 569 203 q 610 112 610 190 l 579 82 l 528 82 q 60 0 421 82 q 10 41 14 20 l 10 82 q 315 600 315 532 l 315 611 l 304 611 l 60 580 q 0 631 18 594 l 0 651 q 81 703 14 703 l 365 703 "},"u":{"x_min":10.828125,"x_max":524.265625,"ha":543,"o":"m 407 543 q 489 136 489 543 l 499 136 l 489 125 l 489 115 l 524 33 q 473 -38 514 -9 q 385 186 385 -38 l 385 217 l 356 217 q 143 -17 249 -17 q 21 380 21 -17 l 10 430 q 82 512 10 474 q 143 461 124 498 l 143 257 l 163 115 l 183 115 q 346 430 321 254 q 407 543 346 543 "},"1":{"x_min":0,"x_max":214,"ha":233,"o":"m 30 743 q 142 427 142 743 q 214 71 214 149 l 214 50 l 203 0 l 152 0 q 30 539 96 0 q 0 692 0 612 l 0 712 l 30 743 "},"k":{"x_min":0.234375,"x_max":519.375,"ha":495,"o":"m 51 660 l 81 660 q 143 376 143 660 l 153 376 q 366 610 255 533 q 417 569 412 590 l 417 539 q 265 325 265 376 l 265 294 q 346 244 290 244 l 406 244 l 509 274 l 519 264 l 519 254 q 366 132 519 154 l 356 132 q 157 213 291 132 l 157 203 l 157 71 q 86 0 157 0 q 26 518 26 0 l 10 580 l 0 580 q 51 660 0 630 "},"ı":{"x_min":0,"x_max":0,"ha":349},"<":{"x_min":49,"x_max":526,"ha":550,"o":"m 374 649 l 385 649 l 385 618 q 201 313 385 585 q 349 196 273 231 q 495 145 425 160 l 526 104 l 526 64 l 485 33 q 49 272 65 241 l 49 323 q 283 587 173 408 q 374 649 341 693 "},"t":{"x_min":-3.140625,"x_max":396.28125,"ha":380,"o":"m 162 824 q 223 763 188 824 q 203 519 203 673 l 203 458 l 223 458 l 284 468 l 314 458 l 314 417 l 203 315 l 203 162 q 243 91 203 107 l 377 143 l 386 101 l 396 91 l 396 81 q 200 0 310 0 q 83 297 83 0 q -3 315 -3 234 l -3 346 l 107 396 l 107 513 q 121 814 107 811 l 162 824 "},"W":{"x_min":0,"x_max":770,"ha":801,"o":"m 697 996 q 770 956 733 996 q 668 51 770 51 l 646 51 q 437 437 548 51 l 365 579 q 182 0 260 0 q 50 295 77 0 q 0 732 0 593 l 60 753 q 132 397 132 753 q 182 224 159 224 q 233 407 213 336 q 315 804 270 804 l 325 814 q 589 305 438 814 q 610 255 610 305 l 661 255 l 661 983 q 697 996 641 996 m 697 528 l 707 528 l 707 508 l 697 508 l 697 528 "},"v":{"x_min":0.265625,"x_max":397,"ha":410,"o":"m 366 570 q 397 478 397 570 q 285 30 346 342 l 244 0 l 224 0 q 0 509 158 0 q 61 560 6 560 q 193 224 94 560 l 224 193 q 325 570 274 321 l 366 570 "},">":{"x_min":102,"x_max":478,"ha":503,"o":"m 163 643 q 315 490 251 643 l 478 337 l 478 297 l 173 -18 l 142 -18 q 102 53 102 -1 q 346 307 339 276 l 346 317 q 132 592 139 524 q 163 643 145 643 "},"s":{"x_min":5,"x_max":371,"ha":393,"o":"m 280 587 q 371 540 371 568 l 371 503 q 117 353 167 503 q 280 210 117 292 q 331 119 331 148 q 106 -43 276 -43 q 15 7 43 -43 q 101 44 50 50 q 198 98 151 39 l 208 129 q 5 363 5 250 l 5 403 q 280 587 142 587 "},"B":{"x_min":41,"x_max":698.484375,"ha":725,"o":"m 292 684 q 379 582 379 684 l 352 460 l 362 450 l 413 460 q 688 307 651 429 l 698 236 q 423 -38 698 116 l 241 -79 q 41 165 41 -79 l 41 561 q 292 684 41 627 m 139 531 l 139 358 l 149 358 q 272 551 272 470 l 272 582 l 251 582 q 139 531 139 566 m 159 206 l 159 43 l 179 23 l 251 23 q 597 236 476 23 l 597 287 q 423 369 559 369 q 159 206 278 369 "},"?":{"x_min":42.96875,"x_max":571.890625,"ha":507,"o":"m 307 923 l 337 923 q 561 760 512 923 l 571 709 q 206 383 493 518 l 206 373 l 256 159 l 206 119 q 104 322 104 119 l 53 434 q 104 495 67 476 l 114 495 q 206 464 167 495 q 460 740 460 648 q 317 821 412 821 l 297 821 q 114 730 215 821 l 83 730 l 42 770 q 307 923 114 923 m 144 17 l 185 17 q 236 -74 213 17 l 185 -115 q 104 -33 104 -105 l 104 -23 l 144 17 "},"H":{"x_min":-5.703125,"x_max":584,"ha":589,"o":"m 380 700 l 401 700 q 502 365 452 700 q 584 334 584 354 l 584 304 q 523 253 554 253 l 523 242 q 553 70 523 151 q 502 -1 533 6 l 479 -1 q 429 233 429 -1 l 418 233 q 228 192 256 233 l 248 -11 q 205 -102 237 -102 l 183 -102 q 132 182 132 -102 l 24 171 l -5 222 l -5 243 q 85 284 7 284 l 106 284 l 106 304 l 75 569 q 136 620 95 620 q 218 304 177 620 l 228 304 q 401 344 294 304 l 350 660 q 380 700 365 700 "},"c":{"x_min":0,"x_max":325.4375,"ha":359,"o":"m 223 610 l 254 610 q 305 549 290 591 q 193 437 302 522 q 122 264 122 331 l 122 183 q 213 112 122 112 l 294 122 q 325 102 294 102 l 325 71 q 183 0 274 0 q 0 223 0 0 l 0 234 q 223 610 0 451 "},"&":{"x_min":25,"x_max":756.984375,"ha":767,"o":"m 291 748 l 320 748 q 365 676 365 717 l 365 534 l 365 341 l 380 341 q 685 575 509 374 q 756 534 756 550 l 756 524 q 452 259 756 461 q 390 198 390 231 q 442 -45 442 30 q 380 -107 417 -107 q 310 5 310 -89 l 310 45 l 320 55 l 289 178 l 207 168 q 25 341 25 168 q 187 433 90 433 l 253 422 l 253 473 l 253 687 q 291 748 272 748 m 157 311 l 157 280 l 218 280 l 218 311 l 157 311 "},"I":{"x_min":21,"x_max":162.78125,"ha":187,"o":"m 30 631 l 66 631 q 137 101 137 631 l 162 50 q 122 0 143 4 l 96 0 q 21 610 21 0 l 30 631 "},"G":{"x_min":0,"x_max":620.640625,"ha":641,"o":"m 315 712 l 366 692 l 366 661 q 112 254 112 420 l 112 152 q 284 102 112 102 q 488 315 488 156 l 477 325 q 315 305 433 305 l 305 305 l 294 294 q 183 345 183 310 l 183 376 l 213 407 l 345 407 q 559 448 494 407 q 620 386 620 448 l 620 376 q 539 162 589 342 q 223 0 416 0 q 0 223 0 26 q 254 692 0 427 l 315 712 "},"(":{"x_min":69,"x_max":445,"ha":513,"o":"m 353 925 l 404 925 l 445 884 l 445 853 q 181 130 181 596 q 404 -82 181 2 l 414 -93 q 445 -113 445 -93 q 353 -174 404 -174 q 69 69 203 -174 l 69 171 q 313 894 69 552 l 353 925 "},"`":{"x_min":0,"x_max":0,"ha":694},"U":{"x_min":0,"x_max":609.875,"ha":619,"o":"m 478 814 q 559 376 559 814 l 609 102 l 589 41 l 538 41 q 468 254 468 65 l 457 254 q 223 0 323 16 q 0 661 0 0 q 61 702 10 702 q 122 590 122 681 l 120 539 q 213 102 120 102 q 376 315 303 155 q 432 498 398 317 l 432 783 l 478 814 "},"F":{"x_min":0,"x_max":611.90625,"ha":586,"o":"m 508 752 q 559 680 559 737 q 254 599 559 649 l 233 579 q 295 335 274 335 l 599 416 l 611 326 q 312 212 462 283 q 335 -1 312 -1 q 295 -52 316 -47 l 274 -52 q 193 192 231 -52 l 183 192 q 112 171 112 185 q 51 222 69 185 l 51 243 q 172 294 51 273 l 183 304 l 183 314 q 112 558 139 535 l 61 538 q 0 579 0 558 l 0 609 q 508 752 0 634 "},"r":{"x_min":16.421875,"x_max":729,"ha":661,"o":"m 362 644 q 464 532 440 644 q 372 267 449 440 q 698 206 538 206 l 729 155 q 637 84 729 115 q 179 206 235 165 l 158 206 q 209 -48 181 1 q 169 -109 189 -109 l 128 -109 q 16 440 74 -109 q 57 512 30 512 l 77 512 l 138 450 q 291 623 238 608 l 362 644 m 169 287 l 169 277 q 342 501 342 337 l 342 552 l 301 552 q 169 287 169 461 "},":":{"x_min":97,"x_max":250,"ha":378,"o":"m 158 464 l 168 464 l 219 413 q 148 352 219 352 l 138 352 q 97 423 97 368 l 97 433 q 158 464 107 464 m 168 240 l 198 240 l 250 189 l 250 158 l 219 128 l 168 128 l 138 158 l 138 209 l 168 240 "},"x":{"x_min":8.203125,"x_max":374,"ha":407,"o":"m 313 638 q 364 597 359 618 l 364 576 q 232 210 232 312 q 303 99 271 99 l 374 99 l 374 88 q 262 -3 374 -3 l 252 -3 l 201 37 l 191 37 q 130 -196 166 37 l 99 -217 l 69 -217 q 28 -155 48 -217 l 99 220 l 8 485 q 38 536 21 536 l 89 536 q 150 424 114 536 l 170 424 q 313 638 240 638 "},"*":{"x_min":28,"x_max":1137,"ha":1161,"o":"m 862 735 q 1137 541 1137 735 q 740 134 1137 366 q 669 43 669 63 l 679 -28 q 536 -130 613 -130 l 495 -68 l 516 43 q 159 277 487 129 q 28 480 28 433 q 282 694 107 694 q 556 551 414 694 q 780 715 721 715 l 862 735 m 556 368 l 424 500 q 282 562 353 562 l 231 562 q 170 500 190 541 q 495 226 170 382 l 577 154 q 1025 551 1025 432 l 1025 572 q 923 623 1001 623 l 862 623 q 628 399 724 623 l 556 368 "},"V":{"x_min":0,"x_max":570,"ha":590,"o":"m 61 763 l 71 763 q 223 427 114 739 q 335 213 297 246 q 457 722 434 516 l 498 752 q 570 712 570 738 l 570 691 q 386 10 434 71 l 366 10 l 366 0 q 122 437 284 0 q 0 712 0 681 l 0 732 q 61 763 10 763 "},"h":{"x_min":-8.171875,"x_max":479,"ha":503,"o":"m 52 720 q 134 577 134 720 l 134 313 l 154 313 q 327 465 248 465 q 479 200 431 465 l 479 31 q 407 -70 479 -70 q 347 292 385 -51 l 296 353 q 164 -53 211 353 l 123 -84 l 102 -84 q 57 119 57 -84 q 2 618 2 439 l 2 628 l -8 638 q 52 720 -8 676 "},"0":{"x_min":0.28125,"x_max":386,"ha":409,"o":"m 142 560 l 162 560 q 386 356 386 519 q 162 0 324 0 q 0 315 46 0 q 142 560 31 560 m 102 356 l 102 244 q 193 102 114 102 q 305 346 305 174 l 305 386 q 152 468 244 468 q 102 356 117 468 "},".":{"x_min":120,"x_max":252.25,"ha":378,"o":"m 181 148 q 252 66 239 148 q 181 -5 227 -5 q 120 46 139 9 l 120 56 q 181 148 120 107 "},"@":{"x_min":35.71875,"x_max":788,"ha":814,"o":"m 432 874 q 788 518 633 874 l 788 457 q 635 60 729 149 q 290 -174 553 -98 q 35 141 100 -174 q 66 314 49 304 l 66 335 q 86 447 72 396 l 106 498 l 96 498 l 208 701 q 285 799 238 772 q 432 874 332 825 m 137 233 l 137 161 q 279 -72 164 -72 q 565 141 429 -72 l 565 151 l 483 182 q 341 101 396 101 q 229 263 229 141 l 229 273 q 422 630 229 452 l 463 630 q 524 589 514 630 l 514 538 l 544 457 l 538 406 q 582 264 538 264 q 706 457 650 264 q 442 752 636 752 l 391 752 q 157 355 246 677 l 137 233 m 341 314 l 341 233 l 371 233 q 417 294 404 252 l 417 447 l 402 447 q 341 314 341 395 "},"f":{"x_min":0,"x_max":560,"ha":476,"o":"m 427 804 q 539 732 510 804 l 539 702 q 498 671 539 687 l 406 681 q 295 519 295 630 l 305 488 q 518 529 486 508 q 560 458 560 519 q 315 366 516 420 l 305 356 l 305 346 l 366 40 q 305 0 355 0 l 284 0 q 193 315 247 0 l 183 325 l 61 285 l 50 285 q 0 356 0 315 q 173 437 0 396 l 173 488 q 427 804 217 804 "},";":{"x_min":78.96875,"x_max":292.109375,"ha":377,"o":"m 221 561 l 251 561 q 292 489 271 561 l 251 429 q 170 500 206 429 q 221 561 184 542 m 182 246 q 246 83 246 246 l 246 52 q 109 -201 246 -166 l 78 -171 l 78 -140 q 140 42 140 -59 l 140 62 l 119 184 q 182 246 134 246 "},"i":{"x_min":35,"x_max":289,"ha":291,"o":"m 95 659 l 105 659 l 147 619 l 147 588 q 85 537 127 552 q 35 578 39 557 l 35 598 q 95 659 35 659 m 116 436 l 126 436 q 167 344 167 422 l 167 191 q 217 80 182 80 l 289 80 l 289 49 q 207 -22 265 11 l 186 -22 q 39 202 77 -22 l 39 334 q 116 436 39 436 "},"6":{"x_min":35.921875,"x_max":435,"ha":466,"o":"m 147 753 q 219 681 181 753 q 158 335 158 517 l 158 284 q 300 396 188 338 q 435 202 435 396 q 249 -41 435 9 l 168 -41 q 127 -92 168 -70 q 56 -20 77 -92 l 66 81 l 35 294 q 147 753 78 753 m 209 81 l 269 81 q 341 182 313 81 l 341 253 l 330 263 l 330 274 q 209 81 209 185 "},"A":{"x_min":35.390625,"x_max":575,"ha":595,"o":"m 209 804 q 290 671 259 804 q 462 356 371 597 q 493 234 493 356 l 575 10 l 575 0 l 554 -20 l 523 -20 q 391 235 482 -20 l 381 235 q 150 142 150 235 q 111 -40 150 -40 l 78 -40 q 35 30 54 -40 q 188 794 151 756 l 209 794 l 209 804 m 229 570 l 198 315 l 351 335 l 351 356 q 249 570 282 570 l 229 570 "},"n":{"x_min":19.140625,"x_max":456.828125,"ha":479,"o":"m 49 492 l 80 492 q 131 359 108 492 l 141 359 q 283 461 224 461 q 456 145 397 461 q 405 13 439 13 l 385 13 q 263 339 334 288 l 252 339 q 172 -17 172 339 l 121 -37 q 70 13 70 -20 q 19 471 70 138 l 49 492 "},"O":{"x_min":35,"x_max":522.546875,"ha":537,"o":"m 166 639 q 349 588 195 615 q 522 333 522 493 q 309 -33 440 -33 l 258 -43 q 35 323 100 -43 q 166 639 35 639 m 126 343 q 268 59 159 59 l 298 59 q 431 313 370 59 l 431 354 q 248 517 410 517 q 126 343 126 517 "},"3":{"x_min":16,"x_max":565,"ha":583,"o":"m 280 747 q 341 706 341 723 l 341 675 q 300 513 341 601 l 371 513 q 565 421 510 513 l 565 411 q 117 -46 565 158 l 76 -57 q 16 4 50 -57 q 198 75 16 54 q 453 360 453 265 l 453 370 l 422 401 l 371 401 q 127 309 267 401 q 66 390 66 330 q 205 594 205 494 l 205 605 l 188 605 q 86 533 116 533 q 46 584 46 533 l 36 584 q 280 747 128 747 "},"]":{"x_min":5.734375,"x_max":448,"ha":514,"o":"m 97 857 q 372 822 191 822 l 372 827 q 448 766 421 810 l 448 613 l 448 430 l 448 -17 q 402 -99 448 -70 l 351 -99 q 66 -160 257 -99 q 5 -85 5 -160 q 168 -43 5 -43 q 336 53 336 0 l 336 287 q 270 715 336 715 q 46 807 46 715 l 46 817 q 97 857 51 838 "},"m":{"x_min":51,"x_max":666,"ha":690,"o":"m 536 495 q 666 66 666 475 l 666 46 q 590 -35 644 -35 l 566 26 l 566 87 q 509 392 566 392 q 386 -4 351 298 l 336 -35 l 325 -35 q 295 26 295 -24 q 234 372 295 336 l 214 372 q 152 -24 113 243 q 81 -66 124 -66 l 71 -66 q 51 468 51 -35 q 71 514 54 499 q 132 443 132 490 l 163 443 q 234 514 163 475 l 264 514 q 366 382 321 474 q 437 463 386 382 l 536 495 "},"9":{"x_min":12,"x_max":530.515625,"ha":542,"o":"m 347 778 l 449 767 l 449 778 q 530 696 479 778 q 500 -5 500 575 l 500 -97 q 429 -138 454 -138 q 368 -56 368 -117 l 368 44 q 388 401 368 163 l 388 411 l 357 411 q 154 289 292 289 q 12 482 12 344 q 286 767 12 604 l 347 778 m 124 421 l 154 401 l 215 401 q 399 574 272 421 l 399 584 l 388 656 l 327 656 q 124 431 124 581 l 124 421 m 32 313 q 32 313 32 313 "},"l":{"x_min":-0.234375,"x_max":264,"ha":265,"o":"m 70 926 q 132 681 132 926 l 132 213 l 142 112 l 162 112 l 264 162 l 264 122 q 101 0 186 0 q 30 203 52 0 l 30 223 l 33 335 q 0 844 33 765 q 70 926 0 898 "},"8":{"x_min":20,"x_max":451.65625,"ha":470,"o":"m 243 711 q 406 539 406 646 l 365 356 q 447 214 447 294 l 447 203 q 189 -61 383 -61 q 76 122 76 -61 l 101 244 q 20 478 20 351 q 243 711 20 676 m 132 518 l 132 386 l 172 346 l 183 346 q 335 541 335 420 q 233 596 335 596 l 132 518 m 451 529 q 451 529 451 529 m 183 122 l 183 71 l 203 51 q 345 193 345 92 l 345 234 l 314 265 q 183 122 215 265 "},"p":{"x_min":5,"x_max":471,"ha":489,"o":"m 226 446 q 471 273 439 446 l 471 263 q 186 -21 471 95 l 161 -31 l 161 -72 q 99 -272 161 -272 q 49 -1 49 -272 q 14 294 14 -1 l 43 314 l 74 314 q 135 60 110 314 q 369 222 261 60 l 369 294 q 196 365 325 365 l 5 300 l 5 321 q 226 446 90 446 "},"4":{"x_min":20.34375,"x_max":412,"ha":446,"o":"m 315 729 q 412 301 412 729 l 412 139 l 412 27 q 356 -85 412 -64 q 284 -13 312 -85 l 295 37 l 295 190 l 193 180 q 20 271 20 180 l 25 362 l 25 515 q 54 556 40 556 l 103 556 q 153 322 153 556 l 163 312 l 274 312 q 295 342 295 312 l 264 678 l 264 688 q 315 729 269 709 "},"R":{"x_min":14.921875,"x_max":682.578125,"ha":644,"o":"m 436 636 q 511 507 511 618 q 361 270 475 420 q 664 136 508 173 l 682 80 q 576 32 673 41 q 159 254 204 202 l 139 259 q 131 0 114 54 q 77 -49 96 -54 l 37 -40 q 53 519 -14 -28 q 109 579 83 585 l 129 574 l 174 501 q 362 636 307 636 l 436 636 m 167 336 l 165 326 q 384 505 346 345 l 395 554 l 356 564 q 167 336 207 505 "},"o":{"x_min":22,"x_max":368,"ha":386,"o":"m 174 480 q 368 205 325 480 l 368 195 q 205 -8 368 50 l 184 -8 q 22 185 22 -8 q 164 480 55 460 l 174 480 m 184 399 q 113 175 113 310 q 154 84 125 84 l 195 84 q 276 195 276 135 l 276 236 q 184 399 235 399 "},"5":{"x_min":54,"x_max":555,"ha":579,"o":"m 351 669 l 402 669 l 443 627 l 443 597 q 371 557 426 557 l 198 557 l 168 526 l 168 474 l 188 454 l 300 485 l 310 485 q 555 332 506 485 l 555 271 q 280 -43 555 114 l 157 -73 q 86 7 112 -61 l 106 48 l 178 38 l 198 38 q 443 312 443 144 q 341 373 443 350 l 330 373 q 157 292 257 373 l 102 292 q 54 495 54 292 q 147 658 70 658 l 239 647 l 351 669 "}}}
